<svg width="295" height="145" viewBox="0 0 295 145" fill="none" xmlns="http://www.w3.org/2000/svg">
  <rect width="295" height="145" fill="#ffffff"/>
  <path d="M1.4 89.5C13.9 62.4 72.7 30.4 151.8 11.2C228.5 -7.5 290.1 -3.4 294.4 17.7C298.2 36.3 256.1 62.8 195.7 82.2" stroke="#E30613" stroke-width="7.5" stroke-linecap="round"/>
  <path d="M294.3 18.5C287.7 35.6 256.5 55.8 209.8 72.5" stroke="#E30613" stroke-width="2.1" stroke-linecap="round"/>
  <path d="M4.8 87.6C25.2 65.4 60.9 48.8 109.3 35.3C69.4 53 41.4 72.4 34 90.2C27.2 106.5 47 113.9 91.9 110.3C45.2 121.8 10.9 119.3 2.2 103.6C-0.3 99.1 0.6 93.7 4.8 87.6Z" fill="#E30613"/>
  <path d="M279.8 2.6C291.9 6.7 297.1 12.4 294 19.8C291.6 25.6 284.7 32.1 273.6 39.2C280.2 26.2 275.5 16.4 259.5 9.7C266 6.7 272.8 4.3 279.8 2.6Z" fill="#E30613"/>
  <text x="31" y="72" fill="#E30613" font-family="Arial, Helvetica, sans-serif" font-size="58" font-weight="400" letter-spacing="-3.5">Enorsul</text>
  <path d="M36 27V70H66" stroke="#E30613" stroke-width="4" stroke-linecap="square"/>
  <path d="M228 50V79" stroke="#E30613" stroke-width="4" stroke-linecap="round"/>
  <text x="70" y="92" fill="#174EA6" font-family="Arial, Helvetica, sans-serif" font-size="15" font-weight="700">Saneamento</text>
</svg>
